<svg xmlns="http://www.w3.org/2000/svg" xmlns:xlink="http://www.w3.org/1999/xlink" width="50" zoomAndPan="magnify" viewBox="0 0 37.5 37.499999" height="50" preserveAspectRatio="xMidYMid meet" version="1.0"><defs><clipPath id="4f078fbec3"><path d="M 0 0 L 37.007812 0 L 37.007812 37.007812 L 0 37.007812 Z M 0 0 " clip-rule="nonzero"/></clipPath><clipPath id="130fb18638"><path d="M 2.660156 9.382812 L 10 9.382812 L 10 23 L 2.660156 23 Z M 2.660156 9.382812 " clip-rule="nonzero"/></clipPath><clipPath id="e03d4bef6f"><path d="M 25.019531 9.78125 L 34.484375 9.78125 L 34.484375 21.921875 L 25.019531 21.921875 Z M 25.019531 9.78125 " clip-rule="nonzero"/></clipPath><clipPath id="4d101f73a6"><path d="M 10 9.382812 L 25 9.382812 L 25 24 L 10 24 Z M 10 9.382812 " clip-rule="nonzero"/></clipPath><clipPath id="feccd1429b"><path d="M 20.957031 23.023438 L 27.136719 23.023438 L 27.136719 30.839844 L 20.957031 30.839844 Z M 20.957031 23.023438 " clip-rule="nonzero"/></clipPath></defs><g clip-path="url(#4f078fbec3)"><path fill="#ffffff" d="M 0 0 L 37.007812 0 L 37.007812 37.007812 L 0 37.007812 Z M 0 0 " fill-opacity="1" fill-rule="nonzero"/><path fill="#fcfbf8" d="M 0 0 L 37.007812 0 L 37.007812 37.007812 L 0 37.007812 Z M 0 0 " fill-opacity="1" fill-rule="nonzero"/></g><path fill="#90a4ae" d="M 21.457031 21.59375 C 21.285156 21.308594 20.914062 21.222656 20.632812 21.394531 C 20.351562 21.570312 20.265625 21.9375 20.4375 22.21875 L 21.816406 24.46875 C 21.988281 24.75 22.355469 24.839844 22.636719 24.667969 C 22.917969 24.492188 23.007812 24.125 22.835938 23.839844 L 21.457031 21.59375 " fill-opacity="1" fill-rule="nonzero"/><path fill="#80deea" d="M 17.535156 10.984375 C 20.480469 10.984375 22.871094 13.378906 22.871094 16.335938 C 22.871094 19.289062 20.480469 21.6875 17.535156 21.6875 C 14.589844 21.6875 12.203125 19.289062 12.203125 16.335938 C 12.203125 13.378906 14.589844 10.984375 17.535156 10.984375 " fill-opacity="1" fill-rule="evenodd"/><g clip-path="url(#130fb18638)"><path fill="#ff6f00" d="M 2.6875 17.671875 L 5.144531 17.335938 L 5.171875 17.996094 C 5.183594 18.332031 5.242188 19.0625 5.484375 19.328125 C 5.667969 19.535156 5.917969 19.589844 6.1875 19.589844 C 6.402344 19.589844 6.617188 19.550781 6.800781 19.433594 C 6.945312 19.34375 7.042969 19.230469 7.097656 19.070312 C 7.207031 18.757812 7.214844 18.230469 7.214844 17.902344 L 7.214844 9.792969 L 9.847656 9.792969 L 9.847656 17.820312 C 9.847656 18.585938 9.777344 19.472656 9.46875 20.183594 C 9.195312 20.800781 8.753906 21.285156 8.164062 21.609375 C 7.558594 21.945312 6.882812 22.078125 6.195312 22.078125 C 5.203125 22.078125 4.253906 21.808594 3.566406 21.058594 C 2.851562 20.285156 2.660156 19.207031 2.679688 18.1875 L 2.6875 17.671875 " fill-opacity="1" fill-rule="evenodd"/></g><g clip-path="url(#e03d4bef6f)"><path fill="#ff6f00" d="M 33.035156 15.382812 C 33.335938 15.578125 33.605469 15.820312 33.832031 16.117188 C 34.28125 16.707031 34.484375 17.394531 34.484375 18.132812 C 34.484375 18.722656 34.359375 19.289062 34.101562 19.820312 C 33.867188 20.296875 33.550781 20.730469 33.125 21.050781 C 32.710938 21.363281 32.226562 21.5625 31.726562 21.691406 C 31.113281 21.847656 30.453125 21.890625 29.824219 21.890625 L 25.085938 21.890625 L 25.085938 9.792969 L 29.757812 9.792969 C 30.5 9.792969 31.308594 9.875 31.992188 10.171875 C 32.605469 10.441406 33.089844 10.859375 33.441406 11.425781 C 33.773438 11.960938 33.960938 12.550781 33.960938 13.183594 C 33.960938 13.765625 33.796875 14.3125 33.492188 14.808594 C 33.363281 15.023438 33.207031 15.210938 33.035156 15.382812 Z M 27.71875 14.375 L 29.472656 14.375 C 29.8125 14.375 30.34375 14.371094 30.671875 14.273438 C 30.863281 14.214844 31.0625 14.117188 31.183594 13.949219 C 31.308594 13.777344 31.347656 13.5625 31.347656 13.351562 C 31.347656 13.128906 31.300781 12.910156 31.179688 12.71875 C 31.082031 12.558594 30.945312 12.460938 30.765625 12.402344 C 30.378906 12.28125 29.695312 12.28125 29.292969 12.28125 L 27.71875 12.28125 Z M 27.71875 19.40625 L 29.824219 19.40625 C 30.089844 19.40625 30.441406 19.410156 30.699219 19.363281 C 30.910156 19.324219 31.132812 19.261719 31.320312 19.144531 C 31.464844 19.054688 31.574219 18.917969 31.65625 18.765625 C 31.761719 18.570312 31.800781 18.351562 31.800781 18.132812 C 31.800781 17.871094 31.742188 17.628906 31.59375 17.414062 C 31.457031 17.210938 31.265625 17.085938 31.035156 17.011719 C 30.628906 16.878906 30.058594 16.859375 29.632812 16.859375 L 27.71875 16.859375 L 27.71875 19.40625 " fill-opacity="1" fill-rule="evenodd"/></g><g clip-path="url(#4d101f73a6)"><path fill="#ffa000" d="M 14.023438 10.605469 C 15.542969 9.671875 17.355469 9.378906 19.089844 9.796875 C 20.816406 10.207031 22.269531 11.296875 23.230469 12.785156 C 23.257812 12.832031 23.242188 12.800781 23.269531 12.847656 C 24.15625 14.378906 24.46875 16.171875 24.058594 17.898438 C 23.648438 19.628906 22.5625 21.089844 21.078125 22.050781 C 21.03125 22.078125 21.0625 22.0625 21.015625 22.089844 C 19.488281 22.980469 17.703125 23.292969 15.980469 22.882812 C 14.257812 22.46875 12.800781 21.378906 11.84375 19.890625 C 11.8125 19.84375 11.832031 19.875 11.804688 19.828125 C 10.914062 18.296875 10.601562 16.503906 11.015625 14.777344 C 11.429688 13.035156 12.503906 11.542969 14.023438 10.605469 Z M 18.542969 12.101562 C 17.421875 11.832031 16.246094 12.019531 15.261719 12.628906 C 14.277344 13.234375 13.582031 14.199219 13.3125 15.328125 C 13.046875 16.449219 13.230469 17.621094 13.832031 18.609375 L 13.839844 18.621094 C 14.441406 19.609375 15.40625 20.304688 16.527344 20.574219 C 17.648438 20.839844 18.816406 20.652344 19.800781 20.050781 L 19.8125 20.046875 C 20.796875 19.445312 21.488281 18.476562 21.757812 17.351562 C 22.023438 16.226562 21.835938 15.054688 21.238281 14.066406 L 21.230469 14.054688 C 20.632812 13.0625 19.667969 12.371094 18.542969 12.101562 " fill-opacity="1" fill-rule="evenodd"/></g><g clip-path="url(#feccd1429b)"><path fill="#5d4037" d="M 21.28125 24.097656 L 22.757812 23.183594 L 23.074219 23.695312 L 22.757812 23.183594 C 23.039062 23.011719 23.410156 23.097656 23.582031 23.378906 C 23.585938 23.386719 23.589844 23.390625 23.589844 23.394531 L 27.027344 29.003906 L 26.515625 29.316406 L 27.027344 29.003906 C 27.199219 29.285156 27.113281 29.65625 26.832031 29.828125 C 26.824219 29.832031 26.820312 29.835938 26.816406 29.835938 L 25.335938 30.75 L 25.023438 30.238281 L 25.335938 30.75 C 25.054688 30.921875 24.6875 30.835938 24.511719 30.554688 C 24.511719 30.546875 24.507812 30.542969 24.503906 30.539062 L 21.070312 24.929688 L 21.578125 24.617188 L 21.066406 24.929688 C 20.894531 24.648438 20.984375 24.277344 21.265625 24.105469 C 21.269531 24.101562 21.273438 24.097656 21.28125 24.097656 " fill-opacity="1" fill-rule="nonzero"/></g><path fill="#6d4c41" d="M 20.988281 24.277344 C 20.707031 24.449219 20.617188 24.820312 20.792969 25.101562 C 20.964844 25.382812 21.332031 25.472656 21.613281 25.296875 L 23.664062 24.035156 C 23.941406 23.863281 24.03125 23.492188 23.859375 23.210938 C 23.683594 22.929688 23.316406 22.839844 23.035156 23.011719 L 20.988281 24.277344 " fill-opacity="1" fill-rule="nonzero"/><path fill="#eceff1" d="M 13.589844 15.902344 C 13.574219 16.042969 13.671875 16.167969 13.808594 16.1875 C 13.949219 16.203125 14.074219 16.105469 14.089844 15.96875 C 14.207031 15.070312 14.644531 14.285156 15.277344 13.726562 C 15.914062 13.164062 16.742188 12.828125 17.644531 12.828125 C 17.730469 12.828125 17.8125 12.832031 17.890625 12.835938 C 17.972656 12.84375 18.054688 12.851562 18.132812 12.863281 C 18.269531 12.878906 18.398438 12.78125 18.417969 12.644531 C 18.433594 12.503906 18.335938 12.378906 18.199219 12.359375 C 18.105469 12.34375 18.011719 12.335938 17.921875 12.328125 C 17.828125 12.324219 17.734375 12.320312 17.644531 12.320312 C 16.617188 12.320312 15.667969 12.703125 14.941406 13.34375 C 14.21875 13.984375 13.71875 14.878906 13.589844 15.902344 " fill-opacity="1" fill-rule="nonzero"/></svg>