<svg xmlns="http://www.w3.org/2000/svg" xmlns:xlink="http://www.w3.org/1999/xlink" width="50" zoomAndPan="magnify" viewBox="0 0 37.5 37.499999" height="50" preserveAspectRatio="xMidYMid meet" version="1.0"><defs><g/><clipPath id="809d2ddafc"><path d="M 0 0 L 37.007812 0 L 37.007812 37.007812 L 0 37.007812 Z M 0 0 " clip-rule="nonzero"/></clipPath><clipPath id="ba520f02a3"><path d="M 7 10.242188 L 26 10.242188 L 26 15 L 7 15 Z M 7 10.242188 " clip-rule="nonzero"/></clipPath><clipPath id="4d814bd935"><path d="M 3.699219 14 L 30.34375 14 L 30.34375 22.824219 L 3.699219 22.824219 Z M 3.699219 14 " clip-rule="nonzero"/></clipPath></defs><g clip-path="url(#809d2ddafc)"><path fill="#ffffff" d="M 0 0 L 37.007812 0 L 37.007812 37.007812 L 0 37.007812 Z M 0 0 " fill-opacity="1" fill-rule="nonzero"/><path fill="#fcfbf8" d="M 0 0 L 37.007812 0 L 37.007812 37.007812 L 0 37.007812 Z M 0 0 " fill-opacity="1" fill-rule="nonzero"/></g><g clip-path="url(#ba520f02a3)"><path fill="#f6921e" d="M 17.519531 12.066406 L 16.175781 13.882812 C 15.386719 13.113281 14.4375 12.644531 13.441406 12.644531 C 12.210938 12.644531 11.019531 13.359375 10.351562 14.425781 C 9.820312 14.351562 9.289062 14.316406 8.757812 14.324219 C 8.449219 14.328125 8.140625 14.351562 7.835938 14.382812 C 7.8125 14.382812 7.789062 14.386719 7.765625 14.390625 C 8.582031 12.039062 10.859375 10.292969 13.460938 10.292969 C 14.96875 10.3125 16.308594 10.90625 17.519531 12.066406 Z M 23.578125 10.242188 L 23.503906 10.242188 L 21.292969 14.949219 C 21.394531 14.910156 21.496094 14.875 21.597656 14.839844 C 21.902344 14.738281 22.207031 14.652344 22.511719 14.582031 C 22.664062 14.546875 22.816406 14.515625 22.96875 14.488281 C 23.125 14.460938 23.277344 14.433594 23.433594 14.414062 C 24.121094 14.316406 24.816406 14.289062 25.503906 14.332031 Z M 23.578125 10.242188 " fill-opacity="1" fill-rule="nonzero"/></g><g clip-path="url(#4d814bd935)"><path fill="#8bc53f" d="M 26.980469 16.257812 C 27.527344 16.25 28.082031 16.273438 28.644531 16.335938 C 29.203125 16.398438 29.769531 16.5 30.34375 16.617188 C 29.875 16.265625 29.359375 15.972656 28.816406 15.726562 C 28.273438 15.480469 27.699219 15.285156 27.105469 15.148438 C 26.582031 15.027344 26.042969 14.949219 25.503906 14.914062 C 24.816406 14.875 24.121094 14.902344 23.433594 14.996094 C 23.277344 15.015625 23.125 15.042969 22.96875 15.070312 C 22.816406 15.101562 22.664062 15.128906 22.511719 15.167969 C 22.207031 15.238281 21.902344 15.320312 21.597656 15.421875 C 21.496094 15.457031 21.394531 15.492188 21.292969 15.53125 C 21.242188 15.550781 21.191406 15.570312 21.140625 15.59375 L 21.023438 15.640625 L 20.960938 15.667969 L 20.925781 15.683594 L 20.910156 15.691406 L 20.867188 15.714844 L 20.84375 15.726562 C 20.839844 15.730469 20.839844 15.730469 20.835938 15.730469 L 20.824219 15.734375 L 20.789062 15.75 L 20.714844 15.785156 C 20.609375 15.832031 20.496094 15.875 20.382812 15.917969 C 20.265625 15.960938 20.148438 16 20.03125 16.039062 C 19.789062 16.113281 19.546875 16.179688 19.296875 16.234375 C 19.175781 16.261719 19.050781 16.289062 18.925781 16.3125 C 18.800781 16.332031 18.675781 16.355469 18.550781 16.371094 C 18.300781 16.410156 18.046875 16.4375 17.792969 16.453125 L 17.601562 16.464844 L 17.507812 16.472656 L 17.410156 16.472656 L 17.21875 16.476562 C 17.15625 16.480469 17.089844 16.476562 17.027344 16.476562 C 16.007812 16.472656 14.984375 16.316406 13.980469 16.03125 L 13.789062 15.976562 L 13.605469 15.917969 C 13.480469 15.875 13.351562 15.839844 13.230469 15.792969 L 12.410156 15.5 C 11.824219 15.304688 11.21875 15.148438 10.605469 15.046875 C 10.519531 15.035156 10.433594 15.023438 10.347656 15.007812 C 9.820312 14.933594 9.289062 14.898438 8.757812 14.910156 C 8.449219 14.910156 8.140625 14.933594 7.835938 14.964844 C 7.8125 14.96875 7.789062 14.972656 7.765625 14.972656 C 7.710938 14.980469 7.660156 14.988281 7.605469 14.996094 C 7.53125 15.007812 7.453125 15.015625 7.378906 15.027344 C 7.226562 15.054688 7.078125 15.078125 6.925781 15.113281 C 6.332031 15.242188 5.75 15.429688 5.203125 15.675781 C 4.929688 15.796875 4.667969 15.9375 4.414062 16.09375 C 4.160156 16.253906 3.917969 16.417969 3.699219 16.617188 C 3.980469 16.53125 4.261719 16.464844 4.542969 16.414062 C 4.820312 16.355469 5.101562 16.316406 5.378906 16.285156 C 5.9375 16.222656 6.492188 16.203125 7.035156 16.222656 C 7.171875 16.222656 7.308594 16.234375 7.445312 16.242188 C 7.457031 16.242188 7.46875 16.242188 7.480469 16.246094 C 7.460938 16.449219 7.449219 16.65625 7.449219 16.863281 C 7.449219 20.089844 10.164062 22.820312 13.503906 22.820312 C 15.257812 22.820312 16.5 22.066406 17.519531 21.0625 L 16.183594 19.191406 C 15.417969 19.941406 14.496094 20.503906 13.433594 20.503906 C 11.644531 20.503906 9.804688 18.921875 9.804688 16.875 C 9.804688 16.804688 9.804688 16.734375 9.8125 16.664062 C 9.9375 16.703125 10.066406 16.742188 10.191406 16.78125 C 10.695312 16.945312 11.1875 17.140625 11.667969 17.359375 L 12.027344 17.53125 L 12.121094 17.578125 L 12.226562 17.625 L 12.4375 17.722656 C 12.578125 17.789062 12.722656 17.847656 12.867188 17.90625 L 13.082031 17.996094 L 13.300781 18.074219 C 13.890625 18.289062 14.5 18.453125 15.121094 18.570312 C 15.433594 18.628906 15.746094 18.671875 16.0625 18.699219 C 16.21875 18.714844 16.378906 18.730469 16.539062 18.734375 L 16.777344 18.746094 C 16.855469 18.746094 16.9375 18.746094 17.015625 18.75 C 17.09375 18.75 17.175781 18.75 17.253906 18.75 L 17.492188 18.738281 L 17.613281 18.734375 L 17.734375 18.726562 L 17.972656 18.710938 C 18.289062 18.679688 18.605469 18.644531 18.921875 18.585938 C 19.078125 18.558594 19.234375 18.523438 19.390625 18.488281 C 19.546875 18.453125 19.703125 18.417969 19.855469 18.371094 C 19.894531 18.359375 19.9375 18.347656 19.976562 18.335938 L 17.972656 22.597656 L 20.488281 22.597656 L 21.226562 20.992188 L 25.863281 20.992188 L 26.59375 22.597656 L 29.117188 22.597656 L 26.152344 16.300781 C 26.429688 16.277344 26.703125 16.265625 26.980469 16.257812 Z M 22.132812 19.027344 L 23.074219 16.988281 C 23.3125 16.898438 23.558594 16.820312 23.804688 16.746094 C 23.835938 16.738281 23.867188 16.726562 23.898438 16.71875 L 24.957031 19.027344 Z M 22.132812 19.027344 " fill-opacity="1" fill-rule="nonzero"/></g><g fill="#000000" fill-opacity="1"><g transform="translate(3.211737, 28.644881)"><g><path d="M 2.015625 -3.5 C 2.179688 -3.5 2.320312 -3.484375 2.4375 -3.453125 C 2.550781 -3.421875 2.671875 -3.378906 2.796875 -3.328125 C 2.816406 -3.316406 2.851562 -3.300781 2.90625 -3.28125 C 2.957031 -3.257812 3.003906 -3.25 3.046875 -3.25 C 3.171875 -3.25 3.25 -3.332031 3.28125 -3.5 L 3.390625 -3.5 L 3.390625 -2.34375 L 3.28125 -2.34375 C 3.257812 -2.53125 3.191406 -2.695312 3.078125 -2.84375 C 2.972656 -2.988281 2.84375 -3.097656 2.6875 -3.171875 C 2.539062 -3.242188 2.382812 -3.28125 2.21875 -3.28125 C 2 -3.28125 1.800781 -3.210938 1.625 -3.078125 C 1.457031 -2.941406 1.328125 -2.753906 1.234375 -2.515625 C 1.148438 -2.273438 1.109375 -2.003906 1.109375 -1.703125 C 1.109375 -1.210938 1.203125 -0.828125 1.390625 -0.546875 C 1.585938 -0.273438 1.859375 -0.140625 2.203125 -0.140625 C 2.421875 -0.140625 2.613281 -0.191406 2.78125 -0.296875 C 2.957031 -0.398438 3.132812 -0.554688 3.3125 -0.765625 L 3.3125 -0.484375 C 3.125 -0.285156 2.929688 -0.144531 2.734375 -0.0625 C 2.535156 0.0195312 2.304688 0.0625 2.046875 0.0625 C 1.679688 0.0625 1.359375 -0.0078125 1.078125 -0.15625 C 0.804688 -0.3125 0.597656 -0.519531 0.453125 -0.78125 C 0.304688 -1.039062 0.234375 -1.332031 0.234375 -1.65625 C 0.234375 -1.976562 0.3125 -2.28125 0.46875 -2.5625 C 0.632812 -2.851562 0.851562 -3.082031 1.125 -3.25 C 1.394531 -3.414062 1.691406 -3.5 2.015625 -3.5 Z M 2.015625 -3.5 "/></g></g></g><g fill="#000000" fill-opacity="1"><g transform="translate(6.79348, 28.644881)"><g><path d="M 0.953125 -0.6875 C 0.953125 -0.539062 0.96875 -0.429688 1 -0.359375 C 1.03125 -0.296875 1.085938 -0.265625 1.171875 -0.265625 C 1.234375 -0.265625 1.300781 -0.289062 1.375 -0.34375 C 1.445312 -0.394531 1.507812 -0.46875 1.5625 -0.5625 L 1.5625 -1.9375 C 1.5625 -2.039062 1.535156 -2.109375 1.484375 -2.140625 C 1.441406 -2.179688 1.367188 -2.207031 1.265625 -2.21875 L 1.265625 -2.3125 L 2.25 -2.3125 L 2.25 -0.28125 C 2.25 -0.164062 2.300781 -0.101562 2.40625 -0.09375 L 2.40625 0 L 1.5625 0 L 1.5625 -0.296875 C 1.46875 -0.191406 1.363281 -0.101562 1.25 -0.03125 C 1.132812 0.03125 1.019531 0.0625 0.90625 0.0625 C 0.707031 0.0625 0.550781 0 0.4375 -0.125 C 0.320312 -0.25 0.265625 -0.421875 0.265625 -0.640625 L 0.265625 -1.90625 C 0.265625 -2.007812 0.25 -2.082031 0.21875 -2.125 C 0.195312 -2.175781 0.148438 -2.207031 0.078125 -2.21875 L 0.078125 -2.3125 L 0.953125 -2.3125 Z M 0.953125 -0.6875 "/></g></g></g><g fill="#000000" fill-opacity="1"><g transform="translate(9.284261, 28.644881)"><g><path d="M 1.546875 -2.375 C 1.628906 -2.375 1.691406 -2.34375 1.734375 -2.28125 C 1.785156 -2.21875 1.8125 -2.132812 1.8125 -2.03125 C 1.8125 -1.9375 1.785156 -1.851562 1.734375 -1.78125 C 1.691406 -1.71875 1.625 -1.6875 1.53125 -1.6875 C 1.488281 -1.6875 1.453125 -1.695312 1.421875 -1.71875 C 1.398438 -1.738281 1.367188 -1.765625 1.328125 -1.796875 C 1.253906 -1.835938 1.207031 -1.859375 1.1875 -1.859375 C 1.125 -1.859375 1.070312 -1.8125 1.03125 -1.71875 C 1 -1.632812 0.984375 -1.539062 0.984375 -1.4375 L 0.984375 -0.390625 C 0.984375 -0.285156 1.003906 -0.207031 1.046875 -0.15625 C 1.097656 -0.113281 1.179688 -0.09375 1.296875 -0.09375 L 1.296875 0 L 0.0625 0 L 0.0625 -0.09375 C 0.226562 -0.09375 0.3125 -0.191406 0.3125 -0.390625 L 0.3125 -1.921875 C 0.3125 -2.117188 0.226562 -2.21875 0.0625 -2.21875 L 0.0625 -2.3125 L 0.984375 -2.3125 L 0.984375 -1.90625 L 1 -1.90625 C 1.15625 -2.21875 1.335938 -2.375 1.546875 -2.375 Z M 1.546875 -2.375 "/></g></g></g><g fill="#000000" fill-opacity="1"><g transform="translate(11.202158, 28.644881)"><g><path d="M 1.546875 -2.375 C 1.628906 -2.375 1.691406 -2.34375 1.734375 -2.28125 C 1.785156 -2.21875 1.8125 -2.132812 1.8125 -2.03125 C 1.8125 -1.9375 1.785156 -1.851562 1.734375 -1.78125 C 1.691406 -1.71875 1.625 -1.6875 1.53125 -1.6875 C 1.488281 -1.6875 1.453125 -1.695312 1.421875 -1.71875 C 1.398438 -1.738281 1.367188 -1.765625 1.328125 -1.796875 C 1.253906 -1.835938 1.207031 -1.859375 1.1875 -1.859375 C 1.125 -1.859375 1.070312 -1.8125 1.03125 -1.71875 C 1 -1.632812 0.984375 -1.539062 0.984375 -1.4375 L 0.984375 -0.390625 C 0.984375 -0.285156 1.003906 -0.207031 1.046875 -0.15625 C 1.097656 -0.113281 1.179688 -0.09375 1.296875 -0.09375 L 1.296875 0 L 0.0625 0 L 0.0625 -0.09375 C 0.226562 -0.09375 0.3125 -0.191406 0.3125 -0.390625 L 0.3125 -1.921875 C 0.3125 -2.117188 0.226562 -2.21875 0.0625 -2.21875 L 0.0625 -2.3125 L 0.984375 -2.3125 L 0.984375 -1.90625 L 1 -1.90625 C 1.15625 -2.21875 1.335938 -2.375 1.546875 -2.375 Z M 1.546875 -2.375 "/></g></g></g><g fill="#000000" fill-opacity="1"><g transform="translate(13.120055, 28.644881)"><g><path d="M 1.15625 -2.375 C 1.351562 -2.375 1.519531 -2.320312 1.65625 -2.21875 C 1.800781 -2.113281 1.90625 -1.976562 1.96875 -1.8125 C 2.039062 -1.65625 2.082031 -1.488281 2.09375 -1.3125 L 2.09375 -1.234375 L 0.78125 -1.234375 C 0.800781 -0.953125 0.875 -0.726562 1 -0.5625 C 1.125 -0.394531 1.273438 -0.3125 1.453125 -0.3125 C 1.578125 -0.3125 1.679688 -0.34375 1.765625 -0.40625 C 1.847656 -0.46875 1.925781 -0.5625 2 -0.6875 L 2.09375 -0.640625 C 1.976562 -0.398438 1.84375 -0.222656 1.6875 -0.109375 C 1.53125 0.00390625 1.34375 0.0625 1.125 0.0625 C 0.914062 0.0625 0.734375 0.0078125 0.578125 -0.09375 C 0.429688 -0.195312 0.316406 -0.335938 0.234375 -0.515625 C 0.160156 -0.691406 0.125 -0.890625 0.125 -1.109375 C 0.125 -1.335938 0.171875 -1.546875 0.265625 -1.734375 C 0.359375 -1.929688 0.484375 -2.085938 0.640625 -2.203125 C 0.796875 -2.316406 0.96875 -2.375 1.15625 -2.375 Z M 1.484375 -1.515625 C 1.484375 -1.753906 1.457031 -1.929688 1.40625 -2.046875 C 1.351562 -2.160156 1.269531 -2.21875 1.15625 -2.21875 C 1.039062 -2.21875 0.945312 -2.140625 0.875 -1.984375 C 0.8125 -1.835938 0.78125 -1.671875 0.78125 -1.484375 L 0.78125 -1.390625 L 1.484375 -1.390625 Z M 1.484375 -1.515625 "/></g></g></g><g fill="#000000" fill-opacity="1"><g transform="translate(15.30198, 28.644881)"><g><path d="M 1.625 -2.375 C 1.820312 -2.375 1.972656 -2.304688 2.078125 -2.171875 C 2.179688 -2.035156 2.234375 -1.867188 2.234375 -1.671875 L 2.234375 -0.484375 C 2.234375 -0.378906 2.238281 -0.304688 2.25 -0.265625 C 2.257812 -0.222656 2.273438 -0.1875 2.296875 -0.15625 C 2.316406 -0.132812 2.351562 -0.113281 2.40625 -0.09375 L 2.40625 0 L 1.34375 0 L 1.34375 -0.09375 C 1.488281 -0.101562 1.5625 -0.207031 1.5625 -0.40625 L 1.5625 -1.703125 C 1.5625 -1.929688 1.484375 -2.046875 1.328125 -2.046875 C 1.203125 -2.046875 1.078125 -1.953125 0.953125 -1.765625 L 0.953125 -0.375 C 0.953125 -0.207031 1.023438 -0.113281 1.171875 -0.09375 L 1.171875 0 L 0.078125 0 L 0.078125 -0.09375 C 0.140625 -0.101562 0.1875 -0.128906 0.21875 -0.171875 C 0.257812 -0.222656 0.28125 -0.300781 0.28125 -0.40625 L 0.28125 -1.921875 C 0.28125 -1.992188 0.265625 -2.054688 0.234375 -2.109375 C 0.203125 -2.171875 0.148438 -2.207031 0.078125 -2.21875 L 0.078125 -2.3125 L 0.953125 -2.3125 L 0.953125 -2 C 1.054688 -2.125 1.160156 -2.21875 1.265625 -2.28125 C 1.378906 -2.34375 1.5 -2.375 1.625 -2.375 Z M 1.625 -2.375 "/></g></g></g><g fill="#000000" fill-opacity="1"><g transform="translate(17.792761, 28.644881)"><g><path d="M 0.96875 -3.140625 L 1.046875 -3.140625 L 1.046875 -2.3125 L 1.578125 -2.3125 L 1.578125 -2.0625 L 1.046875 -2.0625 L 1.046875 -0.46875 C 1.046875 -0.40625 1.054688 -0.347656 1.078125 -0.296875 C 1.109375 -0.242188 1.160156 -0.21875 1.234375 -0.21875 C 1.347656 -0.21875 1.441406 -0.296875 1.515625 -0.453125 L 1.578125 -0.375 C 1.441406 -0.0820312 1.234375 0.0625 0.953125 0.0625 C 0.765625 0.0625 0.617188 0.00390625 0.515625 -0.109375 C 0.421875 -0.222656 0.375 -0.363281 0.375 -0.53125 L 0.375 -2.0625 L 0.078125 -2.0625 L 0.078125 -2.15625 C 0.242188 -2.269531 0.414062 -2.429688 0.59375 -2.640625 C 0.78125 -2.847656 0.90625 -3.015625 0.96875 -3.140625 Z M 0.96875 -3.140625 "/></g></g></g><g fill="#000000" fill-opacity="1"><g transform="translate(19.451622, 28.644881)"><g/></g></g><g fill="#000000" fill-opacity="1"><g transform="translate(20.697009, 28.644881)"><g><path d="M 0.640625 -0.6875 L 1.796875 -3.484375 L 1.84375 -3.484375 L 2.984375 -0.671875 C 3.066406 -0.484375 3.144531 -0.335938 3.21875 -0.234375 C 3.289062 -0.140625 3.390625 -0.09375 3.515625 -0.09375 L 3.515625 0 L 1.90625 0 L 1.90625 -0.09375 C 2.0625 -0.09375 2.164062 -0.101562 2.21875 -0.125 C 2.28125 -0.144531 2.3125 -0.195312 2.3125 -0.28125 C 2.3125 -0.300781 2.300781 -0.328125 2.28125 -0.359375 C 2.269531 -0.390625 2.265625 -0.410156 2.265625 -0.421875 L 2.046875 -0.96875 L 0.953125 -0.96875 L 0.796875 -0.59375 C 0.753906 -0.5 0.734375 -0.414062 0.734375 -0.34375 C 0.734375 -0.238281 0.769531 -0.171875 0.84375 -0.140625 C 0.914062 -0.109375 1.023438 -0.09375 1.171875 -0.09375 L 1.171875 0 L 0.0625 0 L 0.0625 -0.09375 C 0.175781 -0.101562 0.28125 -0.15625 0.375 -0.25 C 0.46875 -0.34375 0.554688 -0.488281 0.640625 -0.6875 Z M 1.96875 -1.15625 L 1.5 -2.296875 L 1.03125 -1.15625 Z M 1.96875 -1.15625 "/></g></g></g><g fill="#000000" fill-opacity="1"><g transform="translate(24.278752, 28.644881)"><g><path d="M 1.375 -3.484375 C 1.550781 -3.484375 1.691406 -3.445312 1.796875 -3.375 C 1.898438 -3.3125 1.953125 -3.226562 1.953125 -3.125 C 1.953125 -3.039062 1.921875 -2.972656 1.859375 -2.921875 C 1.796875 -2.867188 1.710938 -2.84375 1.609375 -2.84375 C 1.523438 -2.84375 1.457031 -2.859375 1.40625 -2.890625 C 1.363281 -2.929688 1.34375 -2.976562 1.34375 -3.03125 C 1.34375 -3.0625 1.34375 -3.09375 1.34375 -3.125 C 1.351562 -3.164062 1.359375 -3.195312 1.359375 -3.21875 C 1.359375 -3.25 1.347656 -3.273438 1.328125 -3.296875 C 1.316406 -3.316406 1.296875 -3.328125 1.265625 -3.328125 C 1.210938 -3.328125 1.171875 -3.300781 1.140625 -3.25 C 1.117188 -3.207031 1.109375 -3.109375 1.109375 -2.953125 L 1.109375 -2.3125 L 1.484375 -2.3125 L 1.484375 -2.0625 L 1.109375 -2.0625 L 1.109375 -0.375 C 1.109375 -0.300781 1.113281 -0.242188 1.125 -0.203125 C 1.144531 -0.171875 1.179688 -0.144531 1.234375 -0.125 C 1.285156 -0.101562 1.363281 -0.09375 1.46875 -0.09375 L 1.46875 0 L 0.09375 0 L 0.09375 -0.09375 C 0.226562 -0.09375 0.316406 -0.113281 0.359375 -0.15625 C 0.398438 -0.195312 0.421875 -0.28125 0.421875 -0.40625 L 0.421875 -2.0625 L 0.09375 -2.0625 L 0.09375 -2.3125 L 0.421875 -2.3125 L 0.421875 -2.671875 C 0.421875 -2.828125 0.460938 -2.96875 0.546875 -3.09375 C 0.640625 -3.21875 0.757812 -3.3125 0.90625 -3.375 C 1.050781 -3.445312 1.207031 -3.484375 1.375 -3.484375 Z M 1.375 -3.484375 "/></g></g></g><g fill="#000000" fill-opacity="1"><g transform="translate(25.937613, 28.644881)"><g><path d="M 1.375 -3.484375 C 1.550781 -3.484375 1.691406 -3.445312 1.796875 -3.375 C 1.898438 -3.3125 1.953125 -3.226562 1.953125 -3.125 C 1.953125 -3.039062 1.921875 -2.972656 1.859375 -2.921875 C 1.796875 -2.867188 1.710938 -2.84375 1.609375 -2.84375 C 1.523438 -2.84375 1.457031 -2.859375 1.40625 -2.890625 C 1.363281 -2.929688 1.34375 -2.976562 1.34375 -3.03125 C 1.34375 -3.0625 1.34375 -3.09375 1.34375 -3.125 C 1.351562 -3.164062 1.359375 -3.195312 1.359375 -3.21875 C 1.359375 -3.25 1.347656 -3.273438 1.328125 -3.296875 C 1.316406 -3.316406 1.296875 -3.328125 1.265625 -3.328125 C 1.210938 -3.328125 1.171875 -3.300781 1.140625 -3.25 C 1.117188 -3.207031 1.109375 -3.109375 1.109375 -2.953125 L 1.109375 -2.3125 L 1.484375 -2.3125 L 1.484375 -2.0625 L 1.109375 -2.0625 L 1.109375 -0.375 C 1.109375 -0.300781 1.113281 -0.242188 1.125 -0.203125 C 1.144531 -0.171875 1.179688 -0.144531 1.234375 -0.125 C 1.285156 -0.101562 1.363281 -0.09375 1.46875 -0.09375 L 1.46875 0 L 0.09375 0 L 0.09375 -0.09375 C 0.226562 -0.09375 0.316406 -0.113281 0.359375 -0.15625 C 0.398438 -0.195312 0.421875 -0.28125 0.421875 -0.40625 L 0.421875 -2.0625 L 0.09375 -2.0625 L 0.09375 -2.3125 L 0.421875 -2.3125 L 0.421875 -2.671875 C 0.421875 -2.828125 0.460938 -2.96875 0.546875 -3.09375 C 0.640625 -3.21875 0.757812 -3.3125 0.90625 -3.375 C 1.050781 -3.445312 1.207031 -3.484375 1.375 -3.484375 Z M 1.375 -3.484375 "/></g></g></g><g fill="#000000" fill-opacity="1"><g transform="translate(27.596473, 28.644881)"><g><path d="M 1.265625 -2.375 C 1.546875 -2.375 1.753906 -2.3125 1.890625 -2.1875 C 2.023438 -2.070312 2.09375 -1.925781 2.09375 -1.75 L 2.09375 -0.515625 C 2.09375 -0.335938 2.140625 -0.25 2.234375 -0.25 C 2.253906 -0.25 2.273438 -0.253906 2.296875 -0.265625 C 2.316406 -0.285156 2.335938 -0.3125 2.359375 -0.34375 L 2.40625 -0.296875 C 2.363281 -0.179688 2.289062 -0.09375 2.1875 -0.03125 C 2.082031 0.03125 1.972656 0.0625 1.859375 0.0625 C 1.734375 0.0625 1.628906 0.03125 1.546875 -0.03125 C 1.472656 -0.09375 1.425781 -0.179688 1.40625 -0.296875 C 1.382812 -0.285156 1.359375 -0.265625 1.328125 -0.234375 C 1.203125 -0.140625 1.085938 -0.0664062 0.984375 -0.015625 C 0.890625 0.0351562 0.78125 0.0625 0.65625 0.0625 C 0.519531 0.0625 0.40625 0.0195312 0.3125 -0.0625 C 0.226562 -0.15625 0.1875 -0.269531 0.1875 -0.40625 C 0.1875 -0.582031 0.257812 -0.738281 0.40625 -0.875 C 0.5625 -1.007812 0.734375 -1.117188 0.921875 -1.203125 L 1.40625 -1.4375 L 1.40625 -1.890625 C 1.40625 -1.972656 1.378906 -2.039062 1.328125 -2.09375 C 1.273438 -2.15625 1.195312 -2.1875 1.09375 -2.1875 C 1 -2.1875 0.914062 -2.164062 0.84375 -2.125 C 0.78125 -2.09375 0.75 -2.046875 0.75 -1.984375 C 0.75 -1.960938 0.753906 -1.941406 0.765625 -1.921875 C 0.773438 -1.910156 0.789062 -1.894531 0.8125 -1.875 C 0.84375 -1.832031 0.863281 -1.796875 0.875 -1.765625 C 0.894531 -1.734375 0.90625 -1.695312 0.90625 -1.65625 C 0.90625 -1.570312 0.875 -1.503906 0.8125 -1.453125 C 0.757812 -1.398438 0.679688 -1.375 0.578125 -1.375 C 0.472656 -1.375 0.382812 -1.398438 0.3125 -1.453125 C 0.25 -1.515625 0.21875 -1.59375 0.21875 -1.6875 C 0.21875 -1.8125 0.265625 -1.925781 0.359375 -2.03125 C 0.460938 -2.132812 0.59375 -2.21875 0.75 -2.28125 C 0.90625 -2.34375 1.078125 -2.375 1.265625 -2.375 Z M 0.875 -0.625 C 0.875 -0.539062 0.894531 -0.472656 0.9375 -0.421875 C 0.976562 -0.378906 1.035156 -0.359375 1.109375 -0.359375 C 1.171875 -0.359375 1.222656 -0.363281 1.265625 -0.375 C 1.304688 -0.394531 1.351562 -0.429688 1.40625 -0.484375 L 1.40625 -1.265625 C 1.050781 -1.078125 0.875 -0.863281 0.875 -0.625 Z M 0.875 -0.625 "/></g></g></g><g fill="#000000" fill-opacity="1"><g transform="translate(30.087254, 28.644881)"><g><path d="M 0.703125 -3.5 C 0.804688 -3.5 0.894531 -3.460938 0.96875 -3.390625 C 1.050781 -3.316406 1.09375 -3.222656 1.09375 -3.109375 C 1.09375 -3.003906 1.050781 -2.910156 0.96875 -2.828125 C 0.894531 -2.753906 0.804688 -2.71875 0.703125 -2.71875 C 0.597656 -2.71875 0.503906 -2.753906 0.421875 -2.828125 C 0.347656 -2.910156 0.3125 -3.003906 0.3125 -3.109375 C 0.3125 -3.222656 0.347656 -3.316406 0.421875 -3.390625 C 0.503906 -3.460938 0.597656 -3.5 0.703125 -3.5 Z M 1.03125 -0.375 C 1.03125 -0.1875 1.113281 -0.09375 1.28125 -0.09375 L 1.28125 0 L 0.0625 0 L 0.0625 -0.09375 C 0.164062 -0.09375 0.238281 -0.113281 0.28125 -0.15625 C 0.320312 -0.207031 0.34375 -0.289062 0.34375 -0.40625 L 0.34375 -1.90625 C 0.34375 -2.019531 0.320312 -2.097656 0.28125 -2.140625 C 0.238281 -2.191406 0.164062 -2.21875 0.0625 -2.21875 L 0.0625 -2.3125 L 1.03125 -2.3125 Z M 1.03125 -0.375 "/></g></g></g><g fill="#000000" fill-opacity="1"><g transform="translate(31.437259, 28.644881)"><g><path d="M 1.546875 -2.375 C 1.628906 -2.375 1.691406 -2.34375 1.734375 -2.28125 C 1.785156 -2.21875 1.8125 -2.132812 1.8125 -2.03125 C 1.8125 -1.9375 1.785156 -1.851562 1.734375 -1.78125 C 1.691406 -1.71875 1.625 -1.6875 1.53125 -1.6875 C 1.488281 -1.6875 1.453125 -1.695312 1.421875 -1.71875 C 1.398438 -1.738281 1.367188 -1.765625 1.328125 -1.796875 C 1.253906 -1.835938 1.207031 -1.859375 1.1875 -1.859375 C 1.125 -1.859375 1.070312 -1.8125 1.03125 -1.71875 C 1 -1.632812 0.984375 -1.539062 0.984375 -1.4375 L 0.984375 -0.390625 C 0.984375 -0.285156 1.003906 -0.207031 1.046875 -0.15625 C 1.097656 -0.113281 1.179688 -0.09375 1.296875 -0.09375 L 1.296875 0 L 0.0625 0 L 0.0625 -0.09375 C 0.226562 -0.09375 0.3125 -0.191406 0.3125 -0.390625 L 0.3125 -1.921875 C 0.3125 -2.117188 0.226562 -2.21875 0.0625 -2.21875 L 0.0625 -2.3125 L 0.984375 -2.3125 L 0.984375 -1.90625 L 1 -1.90625 C 1.15625 -2.21875 1.335938 -2.375 1.546875 -2.375 Z M 1.546875 -2.375 "/></g></g></g><g fill="#000000" fill-opacity="1"><g transform="translate(33.355156, 28.644881)"><g><path d="M 0.828125 -2.375 C 0.910156 -2.375 0.984375 -2.363281 1.046875 -2.34375 C 1.109375 -2.320312 1.179688 -2.296875 1.265625 -2.265625 C 1.328125 -2.234375 1.375 -2.21875 1.40625 -2.21875 C 1.445312 -2.21875 1.476562 -2.226562 1.5 -2.25 C 1.53125 -2.28125 1.5625 -2.320312 1.59375 -2.375 L 1.65625 -2.375 L 1.6875 -1.578125 L 1.640625 -1.578125 C 1.566406 -1.773438 1.457031 -1.925781 1.3125 -2.03125 C 1.175781 -2.132812 1.03125 -2.1875 0.875 -2.1875 C 0.769531 -2.1875 0.691406 -2.164062 0.640625 -2.125 C 0.585938 -2.082031 0.5625 -2.023438 0.5625 -1.953125 C 0.5625 -1.867188 0.597656 -1.796875 0.671875 -1.734375 C 0.753906 -1.671875 0.878906 -1.601562 1.046875 -1.53125 C 1.210938 -1.457031 1.347656 -1.382812 1.453125 -1.3125 C 1.554688 -1.25 1.644531 -1.164062 1.71875 -1.0625 C 1.789062 -0.957031 1.828125 -0.828125 1.828125 -0.671875 C 1.828125 -0.535156 1.789062 -0.410156 1.71875 -0.296875 C 1.65625 -0.179688 1.5625 -0.09375 1.4375 -0.03125 C 1.3125 0.03125 1.175781 0.0625 1.03125 0.0625 C 0.9375 0.0625 0.851562 0.0507812 0.78125 0.03125 C 0.707031 0.0195312 0.628906 -0.00390625 0.546875 -0.046875 C 0.535156 -0.046875 0.507812 -0.0507812 0.46875 -0.0625 C 0.425781 -0.0820312 0.394531 -0.09375 0.375 -0.09375 C 0.3125 -0.09375 0.257812 -0.0390625 0.21875 0.0625 L 0.171875 0.0625 L 0.125 -0.75 L 0.171875 -0.75 C 0.253906 -0.539062 0.363281 -0.378906 0.5 -0.265625 C 0.644531 -0.160156 0.800781 -0.109375 0.96875 -0.109375 C 1.070312 -0.109375 1.15625 -0.132812 1.21875 -0.1875 C 1.289062 -0.25 1.328125 -0.320312 1.328125 -0.40625 C 1.328125 -0.476562 1.300781 -0.539062 1.25 -0.59375 C 1.195312 -0.644531 1.117188 -0.695312 1.015625 -0.75 C 0.960938 -0.78125 0.914062 -0.804688 0.875 -0.828125 C 0.84375 -0.847656 0.8125 -0.863281 0.78125 -0.875 C 0.625 -0.945312 0.5 -1.007812 0.40625 -1.0625 C 0.320312 -1.125 0.25 -1.203125 0.1875 -1.296875 C 0.125 -1.398438 0.09375 -1.519531 0.09375 -1.65625 C 0.09375 -1.863281 0.160156 -2.035156 0.296875 -2.171875 C 0.429688 -2.304688 0.609375 -2.375 0.828125 -2.375 Z M 0.828125 -2.375 "/></g></g></g></svg>